<?xml version="1.0" standalone="no"?>
<!DOCTYPE svg PUBLIC "-//W3C//DTD SVG 1.0//EN" "http://www.w3.org/TR/2001/REC-SVG-20010904/DTD/svg10.dtd">
<svg xmlns="http://www.w3.org/2000/svg" xmlns:xlink="http://www.w3.org/1999/xlink" id="body_1" width="24" height="24">

<g transform="matrix(1 0 0 1 0 0)">
    <path d="M0 0L24 0L24 24L0 24L0 0z" stroke="none" fill="none" />
    <path d="M22 11L22 13L9 13L9 7L18 7C 20.21 7 22 8.79 22 11zM2 14L2 16L8 16L8 18L16 18L16 16L22 16L22 14L2 14zM7.14 12.1C 8.3 10.91 8.28 9.02 7.1 7.8600006C 5.91 6.700001 4.02 6.7200007 2.8600001 7.9000006C 1.7000002 9.09 1.7200001 10.9800005 2.9 12.14C 4.09 13.3 5.98 13.280001 7.14 12.1z" stroke="none" fill="#000000" fill-rule="nonzero" />
</g>
</svg>