<?xml version="1.0" encoding="UTF-8" standalone="no"?>
<!DOCTYPE svg PUBLIC "-//W3C//DTD SVG 1.1//EN"
 "http://www.w3.org/Graphics/SVG/1.1/DTD/svg11.dtd">
<!-- Generated by graphviz version 2.43.0 (0)
 -->
<!-- Title: dependency&#45;cruiser output Pages: 1 -->
<svg width="224pt" height="276pt"
 viewBox="0.00 0.00 224.00 276.00" xmlns="http://www.w3.org/2000/svg" xmlns:xlink="http://www.w3.org/1999/xlink">
<g id="graph0" class="graph" transform="scale(1 1) rotate(0) translate(4 272)">
<title>dependency&#45;cruiser output</title>
<polygon fill="white" stroke="transparent" points="-4,4 -4,-272 220,-272 220,4 -4,4"/>
<g id="clust1" class="cluster">
<title>cluster_src</title>
<path fill="#ffffff" stroke="black" stroke-width="2" d="M20,-8C20,-8 196,-8 196,-8 202,-8 208,-14 208,-20 208,-20 208,-248 208,-248 208,-254 202,-260 196,-260 196,-260 20,-260 20,-260 14,-260 8,-254 8,-248 8,-248 8,-20 8,-20 8,-14 14,-8 20,-8"/>
<text text-anchor="middle" x="108" y="-248.8" font-family="Helvetica,sans-Serif" font-weight="bold" font-size="9.00">src</text>
</g>
<!-- src/App.tsx -->
<g id="node1" class="node">
<title>src/App.tsx</title>
<g id="a_node1"><a xlink:href="src/App.tsx" xlink:title="App.tsx">
<path fill="#bbfeff" stroke="black" d="M137,-234C137,-234 95,-234 95,-234 92,-234 89,-231 89,-228 89,-228 89,-222 89,-222 89,-219 92,-216 95,-216 95,-216 137,-216 137,-216 140,-216 143,-219 143,-222 143,-222 143,-228 143,-228 143,-231 140,-234 137,-234"/>
<text text-anchor="start" x="98.5" y="-222.8" font-family="Helvetica,sans-Serif" font-size="9.00">App.tsx</text>
</a>
</g>
</g>
<!-- src/PythonConverter -->
<g id="node2" class="node">
<title>src/PythonConverter</title>
<g id="a_node2"><a xlink:href="src/PythonConverter" xlink:title="PythonConverter">
<polygon fill="#ccffcc" stroke="black" points="162,-194 72,-194 70,-192 70,-176 160,-176 162,-178 162,-194"/>
<polyline fill="none" stroke="black" points="160,-192 70,-192 "/>
<polyline fill="none" stroke="black" points="160,-192 160,-176 "/>
<polyline fill="none" stroke="black" points="160,-192 162,-194 "/>
<text text-anchor="start" x="78" y="-182.8" font-family="Helvetica,sans-Serif" font-size="9.00">PythonConverter</text>
</a>
</g>
</g>
<!-- src/App.tsx&#45;&gt;src/PythonConverter -->
<g id="edge1" class="edge">
<title>src/App.tsx&#45;&gt;src/PythonConverter</title>
<path fill="none" stroke="#000000" stroke-width="2" stroke-opacity="0.200000" d="M116,-215.72C116,-215.72 116,-200.23 116,-200.23"/>
<polygon fill="#000000" fill-opacity="0.200000" stroke="#000000" stroke-width="2" stroke-opacity="0.200000" points="118.1,-200.23 116,-194.23 113.9,-200.23 118.1,-200.23"/>
</g>
<!-- src/services -->
<g id="node3" class="node">
<title>src/services</title>
<g id="a_node3"><a xlink:href="src/services" xlink:title="services">
<polygon fill="#ffffcc" stroke="black" points="78,-154 26,-154 24,-152 24,-136 76,-136 78,-138 78,-154"/>
<polyline fill="none" stroke="black" points="76,-152 24,-152 "/>
<polyline fill="none" stroke="black" points="76,-152 76,-136 "/>
<polyline fill="none" stroke="black" points="76,-152 78,-154 "/>
<text text-anchor="start" x="32.5" y="-142.8" font-family="Helvetica,sans-Serif" font-size="9.00">services</text>
</a>
</g>
</g>
<!-- src/App.tsx&#45;&gt;src/services -->
<g id="edge2" class="edge">
<title>src/App.tsx&#45;&gt;src/services</title>
<path fill="none" stroke="#000000" stroke-width="2" stroke-opacity="0.200000" d="M88.73,-225C69.44,-225 47,-225 47,-225 47,-225 47,-160.18 47,-160.18"/>
<polygon fill="#000000" fill-opacity="0.200000" stroke="#000000" stroke-width="2" stroke-opacity="0.200000" points="49.1,-160.18 47,-154.18 44.9,-160.18 49.1,-160.18"/>
</g>
<!-- src/WrapperApp -->
<g id="node4" class="node">
<title>src/WrapperApp</title>
<g id="a_node4"><a xlink:href="src/WrapperApp" xlink:title="WrapperApp">
<polygon fill="#ccffcc" stroke="black" points="160.5,-74 89.5,-74 87.5,-72 87.5,-56 158.5,-56 160.5,-58 160.5,-74"/>
<polyline fill="none" stroke="black" points="158.5,-72 87.5,-72 "/>
<polyline fill="none" stroke="black" points="158.5,-72 158.5,-56 "/>
<polyline fill="none" stroke="black" points="158.5,-72 160.5,-74 "/>
<text text-anchor="start" x="95.5" y="-62.8" font-family="Helvetica,sans-Serif" font-size="9.00">WrapperApp</text>
</a>
</g>
</g>
<!-- src/App.tsx&#45;&gt;src/WrapperApp -->
<g id="edge3" class="edge">
<title>src/App.tsx&#45;&gt;src/WrapperApp</title>
<path fill="none" stroke="#000000" stroke-width="2" stroke-opacity="0.200000" d="M143.14,-225C160.58,-225 180,-225 180,-225 180,-225 180,-65 180,-65 180,-65 166.73,-65 166.73,-65"/>
<polygon fill="#000000" fill-opacity="0.200000" stroke="#000000" stroke-width="2" stroke-opacity="0.200000" points="166.73,-62.9 160.73,-65 166.73,-67.1 166.73,-62.9"/>
</g>
<!-- src/PythonConverter&#45;&gt;src/services -->
<g id="edge6" class="edge">
<title>src/PythonConverter&#45;&gt;src/services</title>
<path fill="none" stroke="#000000" stroke-width="2" stroke-opacity="0.200000" d="M74,-175.72C74,-175.72 74,-160.23 74,-160.23"/>
<polygon fill="#000000" fill-opacity="0.200000" stroke="#000000" stroke-width="2" stroke-opacity="0.200000" points="76.1,-160.23 74,-154.23 71.9,-160.23 76.1,-160.23"/>
</g>
<!-- src/ThreeEditor -->
<g id="node6" class="node">
<title>src/ThreeEditor</title>
<g id="a_node6"><a xlink:href="src/ThreeEditor" xlink:title="ThreeEditor">
<polygon fill="#ffffcc" stroke="black" points="85.5,-114 18.5,-114 16.5,-112 16.5,-96 83.5,-96 85.5,-98 85.5,-114"/>
<polyline fill="none" stroke="black" points="83.5,-112 16.5,-112 "/>
<polyline fill="none" stroke="black" points="83.5,-112 83.5,-96 "/>
<polyline fill="none" stroke="black" points="83.5,-112 85.5,-114 "/>
<text text-anchor="start" x="24.5" y="-102.8" font-family="Helvetica,sans-Serif" font-size="9.00">ThreeEditor</text>
</a>
</g>
</g>
<!-- src/services&#45;&gt;src/ThreeEditor -->
<g id="edge13" class="edge">
<title>src/services&#45;&gt;src/ThreeEditor</title>
<path fill="none" stroke="#000000" stroke-width="2" stroke-opacity="0.200000" d="M42,-135.72C42,-135.72 42,-120.23 42,-120.23"/>
<polygon fill="#000000" fill-opacity="0.200000" stroke="#000000" stroke-width="2" stroke-opacity="0.200000" points="44.1,-120.23 42,-114.23 39.9,-120.23 44.1,-120.23"/>
</g>
<!-- src/WrapperApp&#45;&gt;src/PythonConverter -->
<g id="edge11" class="edge">
<title>src/WrapperApp&#45;&gt;src/PythonConverter</title>
<path fill="none" stroke="#000000" stroke-width="2" stroke-opacity="0.200000" d="M136.17,-74.02C136.17,-74.02 136.17,-169.88 136.17,-169.88"/>
<polygon fill="#000000" fill-opacity="0.200000" stroke="#000000" stroke-width="2" stroke-opacity="0.200000" points="134.07,-169.88 136.17,-175.88 138.27,-169.88 134.07,-169.88"/>
</g>
<!-- src/WrapperApp&#45;&gt;src/services -->
<g id="edge9" class="edge">
<title>src/WrapperApp&#45;&gt;src/services</title>
<path fill="none" stroke="#000000" stroke-width="2" stroke-opacity="0.200000" d="M111.83,-74.18C111.83,-95.19 111.83,-145 111.83,-145 111.83,-145 84.21,-145 84.21,-145"/>
<polygon fill="#000000" fill-opacity="0.200000" stroke="#000000" stroke-width="2" stroke-opacity="0.200000" points="84.21,-142.9 78.21,-145 84.21,-147.1 84.21,-142.9"/>
</g>
<!-- src/JsRoot -->
<g id="node5" class="node">
<title>src/JsRoot</title>
<g id="a_node5"><a xlink:href="src/JsRoot" xlink:title="JsRoot">
<polygon fill="#ffffcc" stroke="black" points="151,-34 99,-34 97,-32 97,-16 149,-16 151,-18 151,-34"/>
<polyline fill="none" stroke="black" points="149,-32 97,-32 "/>
<polyline fill="none" stroke="black" points="149,-32 149,-16 "/>
<polyline fill="none" stroke="black" points="149,-32 151,-34 "/>
<text text-anchor="start" x="110" y="-22.8" font-family="Helvetica,sans-Serif" font-size="9.00">JsRoot</text>
</a>
</g>
</g>
<!-- src/WrapperApp&#45;&gt;src/JsRoot -->
<g id="edge12" class="edge">
<title>src/WrapperApp&#45;&gt;src/JsRoot</title>
<path fill="none" stroke="#000000" stroke-width="2" stroke-opacity="0.200000" d="M115,-55.72C115,-55.72 115,-40.23 115,-40.23"/>
<polygon fill="#000000" fill-opacity="0.200000" stroke="#000000" stroke-width="2" stroke-opacity="0.200000" points="117.1,-40.23 115,-34.23 112.9,-40.23 117.1,-40.23"/>
</g>
<!-- src/WrapperApp&#45;&gt;src/ThreeEditor -->
<g id="edge10" class="edge">
<title>src/WrapperApp&#45;&gt;src/ThreeEditor</title>
<path fill="none" stroke="#000000" stroke-width="2" stroke-opacity="0.200000" d="M87.44,-68C76.93,-68 68.25,-68 68.25,-68 68.25,-68 68.25,-89.66 68.25,-89.66"/>
<polygon fill="#000000" fill-opacity="0.200000" stroke="#000000" stroke-width="2" stroke-opacity="0.200000" points="66.15,-89.66 68.25,-95.66 70.35,-89.66 66.15,-89.66"/>
</g>
<!-- src/JsRoot&#45;&gt;src/WrapperApp -->
<g id="edge5" class="edge">
<title>src/JsRoot&#45;&gt;src/WrapperApp</title>
<path fill="none" stroke="#000000" stroke-width="2" stroke-opacity="0.200000" d="M133,-34.28C133,-34.28 133,-49.77 133,-49.77"/>
<polygon fill="#000000" fill-opacity="0.200000" stroke="#000000" stroke-width="2" stroke-opacity="0.200000" points="130.9,-49.77 133,-55.77 135.1,-49.77 130.9,-49.77"/>
</g>
<!-- src/JsRoot&#45;&gt;src/ThreeEditor -->
<g id="edge4" class="edge">
<title>src/JsRoot&#45;&gt;src/ThreeEditor</title>
<path fill="none" stroke="#000000" stroke-width="2" stroke-opacity="0.200000" d="M96.92,-25C70.34,-25 33.75,-25 33.75,-25 33.75,-25 33.75,-89.82 33.75,-89.82"/>
<polygon fill="#000000" fill-opacity="0.200000" stroke="#000000" stroke-width="2" stroke-opacity="0.200000" points="31.65,-89.82 33.75,-95.82 35.85,-89.82 31.65,-89.82"/>
</g>
<!-- src/ThreeEditor&#45;&gt;src/services -->
<g id="edge8" class="edge">
<title>src/ThreeEditor&#45;&gt;src/services</title>
<path fill="none" stroke="#000000" stroke-width="2" stroke-opacity="0.200000" d="M60,-114.28C60,-114.28 60,-129.77 60,-129.77"/>
<polygon fill="#000000" fill-opacity="0.200000" stroke="#000000" stroke-width="2" stroke-opacity="0.200000" points="57.9,-129.77 60,-135.77 62.1,-129.77 57.9,-129.77"/>
</g>
<!-- src/ThreeEditor&#45;&gt;src/WrapperApp -->
<g id="edge7" class="edge">
<title>src/ThreeEditor&#45;&gt;src/WrapperApp</title>
<path fill="none" stroke="#000000" stroke-width="2" stroke-opacity="0.200000" d="M51,-95.88C51,-83.26 51,-62 51,-62 51,-62 81.07,-62 81.07,-62"/>
<polygon fill="#000000" fill-opacity="0.200000" stroke="#000000" stroke-width="2" stroke-opacity="0.200000" points="81.07,-64.1 87.07,-62 81.07,-59.9 81.07,-64.1"/>
</g>
</g>
</svg>
