<?xml version="1.0" encoding="UTF-8" standalone="no"?>
<!DOCTYPE svg PUBLIC "-//W3C//DTD SVG 1.1//EN"
 "http://www.w3.org/Graphics/SVG/1.1/DTD/svg11.dtd">
<!-- Generated by graphviz version 2.43.0 (0)
 -->
<!-- Title: dependency&#45;cruiser output Pages: 1 -->
<svg width="160pt" height="276pt"
 viewBox="0.00 0.00 160.00 276.00" xmlns="http://www.w3.org/2000/svg" xmlns:xlink="http://www.w3.org/1999/xlink">
<g id="graph0" class="graph" transform="scale(1 1) rotate(0) translate(4 272)">
<title>dependency&#45;cruiser output</title>
<polygon fill="white" stroke="transparent" points="-4,4 -4,-272 156,-272 156,4 -4,4"/>
<g id="clust1" class="cluster">
<title>cluster_src</title>
<path fill="#ffffff" stroke="black" stroke-width="2" d="M20,-8C20,-8 132,-8 132,-8 138,-8 144,-14 144,-20 144,-20 144,-248 144,-248 144,-254 138,-260 132,-260 132,-260 20,-260 20,-260 14,-260 8,-254 8,-248 8,-248 8,-20 8,-20 8,-14 14,-8 20,-8"/>
<text text-anchor="middle" x="76" y="-248.8" font-family="Helvetica,sans-Serif" font-weight="bold" font-size="9.00">src</text>
</g>
<!-- src/App.tsx -->
<g id="node1" class="node">
<title>src/App.tsx</title>
<g id="a_node1"><a xlink:href="src/App.tsx" xlink:title="App.tsx">
<path fill="#bbfeff" stroke="black" d="M97,-234C97,-234 55,-234 55,-234 52,-234 49,-231 49,-228 49,-228 49,-222 49,-222 49,-219 52,-216 55,-216 55,-216 97,-216 97,-216 100,-216 103,-219 103,-222 103,-222 103,-228 103,-228 103,-231 100,-234 97,-234"/>
<text text-anchor="start" x="58.5" y="-222.8" font-family="Helvetica,sans-Serif" font-size="9.00">App.tsx</text>
</a>
</g>
</g>
<!-- src/PythonConverter -->
<g id="node2" class="node">
<title>src/PythonConverter</title>
<g id="a_node2"><a xlink:href="src/PythonConverter" xlink:title="PythonConverter">
<polygon fill="#ccffcc" stroke="black" points="122,-194 32,-194 30,-192 30,-176 120,-176 122,-178 122,-194"/>
<polyline fill="none" stroke="black" points="120,-192 30,-192 "/>
<polyline fill="none" stroke="black" points="120,-192 120,-176 "/>
<polyline fill="none" stroke="black" points="120,-192 122,-194 "/>
<text text-anchor="start" x="38" y="-182.8" font-family="Helvetica,sans-Serif" font-size="9.00">PythonConverter</text>
</a>
</g>
</g>
<!-- src/App.tsx&#45;&gt;src/PythonConverter -->
<g id="edge1" class="edge">
<title>src/App.tsx&#45;&gt;src/PythonConverter</title>
<path fill="none" stroke="#000000" stroke-width="2" stroke-opacity="0.200000" d="M76,-215.72C76,-215.72 76,-200.23 76,-200.23"/>
<polygon fill="#000000" fill-opacity="0.200000" stroke="#000000" stroke-width="2" stroke-opacity="0.200000" points="78.1,-200.23 76,-194.23 73.9,-200.23 78.1,-200.23"/>
</g>
<!-- src/services -->
<g id="node3" class="node">
<title>src/services</title>
<g id="a_node3"><a xlink:href="src/services" xlink:title="services">
<polygon fill="#ffffcc" stroke="black" points="78,-154 26,-154 24,-152 24,-136 76,-136 78,-138 78,-154"/>
<polyline fill="none" stroke="black" points="76,-152 24,-152 "/>
<polyline fill="none" stroke="black" points="76,-152 76,-136 "/>
<polyline fill="none" stroke="black" points="76,-152 78,-154 "/>
<text text-anchor="start" x="32.5" y="-142.8" font-family="Helvetica,sans-Serif" font-size="9.00">services</text>
</a>
</g>
</g>
<!-- src/App.tsx&#45;&gt;src/services -->
<g id="edge2" class="edge">
<title>src/App.tsx&#45;&gt;src/services</title>
<path fill="none" stroke="#000000" stroke-width="2" stroke-opacity="0.200000" d="M48.78,-225C34.63,-225 20.25,-225 20.25,-225 20.25,-225 20.25,-145 20.25,-145 20.25,-145 20.58,-145 20.58,-145"/>
<polygon fill="#000000" fill-opacity="0.200000" stroke="#000000" stroke-width="2" stroke-opacity="0.200000" points="17.54,-147.1 23.54,-145 17.54,-142.9 17.54,-147.1"/>
</g>
<!-- src/WrapperApp -->
<g id="node4" class="node">
<title>src/WrapperApp</title>
<g id="a_node4"><a xlink:href="src/WrapperApp" xlink:title="WrapperApp">
<polygon fill="#ccffcc" stroke="black" points="135.5,-74 64.5,-74 62.5,-72 62.5,-56 133.5,-56 135.5,-58 135.5,-74"/>
<polyline fill="none" stroke="black" points="133.5,-72 62.5,-72 "/>
<polyline fill="none" stroke="black" points="133.5,-72 133.5,-56 "/>
<polyline fill="none" stroke="black" points="133.5,-72 135.5,-74 "/>
<text text-anchor="start" x="70.5" y="-62.8" font-family="Helvetica,sans-Serif" font-size="9.00">WrapperApp</text>
</a>
</g>
</g>
<!-- src/App.tsx&#45;&gt;src/WrapperApp -->
<g id="edge3" class="edge">
<title>src/App.tsx&#45;&gt;src/WrapperApp</title>
<path fill="none" stroke="#000000" stroke-width="2" stroke-opacity="0.200000" d="M103.3,-225C116.17,-225 128.75,-225 128.75,-225 128.75,-225 128.75,-80.06 128.75,-80.06"/>
<polygon fill="#000000" fill-opacity="0.200000" stroke="#000000" stroke-width="2" stroke-opacity="0.200000" points="130.85,-80.06 128.75,-74.06 126.65,-80.06 130.85,-80.06"/>
</g>
<!-- src/PythonConverter&#45;&gt;src/services -->
<g id="edge6" class="edge">
<title>src/PythonConverter&#45;&gt;src/services</title>
<path fill="none" stroke="#000000" stroke-width="2" stroke-opacity="0.200000" d="M54,-175.72C54,-175.72 54,-160.23 54,-160.23"/>
<polygon fill="#000000" fill-opacity="0.200000" stroke="#000000" stroke-width="2" stroke-opacity="0.200000" points="56.1,-160.23 54,-154.23 51.9,-160.23 56.1,-160.23"/>
</g>
<!-- src/ThreeEditor -->
<g id="node6" class="node">
<title>src/ThreeEditor</title>
<g id="a_node6"><a xlink:href="src/ThreeEditor" xlink:title="ThreeEditor">
<polygon fill="#ffffcc" stroke="black" points="85.5,-114 18.5,-114 16.5,-112 16.5,-96 83.5,-96 85.5,-98 85.5,-114"/>
<polyline fill="none" stroke="black" points="83.5,-112 16.5,-112 "/>
<polyline fill="none" stroke="black" points="83.5,-112 83.5,-96 "/>
<polyline fill="none" stroke="black" points="83.5,-112 85.5,-114 "/>
<text text-anchor="start" x="24.5" y="-102.8" font-family="Helvetica,sans-Serif" font-size="9.00">ThreeEditor</text>
</a>
</g>
</g>
<!-- src/services&#45;&gt;src/ThreeEditor -->
<g id="edge13" class="edge">
<title>src/services&#45;&gt;src/ThreeEditor</title>
<path fill="none" stroke="#000000" stroke-width="2" stroke-opacity="0.200000" d="M42,-135.72C42,-135.72 42,-120.23 42,-120.23"/>
<polygon fill="#000000" fill-opacity="0.200000" stroke="#000000" stroke-width="2" stroke-opacity="0.200000" points="44.1,-120.23 42,-114.23 39.9,-120.23 44.1,-120.23"/>
</g>
<!-- src/WrapperApp&#45;&gt;src/PythonConverter -->
<g id="edge11" class="edge">
<title>src/WrapperApp&#45;&gt;src/PythonConverter</title>
<path fill="none" stroke="#000000" stroke-width="2" stroke-opacity="0.200000" d="M109.83,-74.02C109.83,-74.02 109.83,-169.88 109.83,-169.88"/>
<polygon fill="#000000" fill-opacity="0.200000" stroke="#000000" stroke-width="2" stroke-opacity="0.200000" points="107.73,-169.88 109.83,-175.88 111.93,-169.88 107.73,-169.88"/>
</g>
<!-- src/WrapperApp&#45;&gt;src/services -->
<g id="edge9" class="edge">
<title>src/WrapperApp&#45;&gt;src/services</title>
<path fill="none" stroke="#000000" stroke-width="2" stroke-opacity="0.200000" d="M97.67,-74.18C97.67,-95.19 97.67,-145 97.67,-145 97.67,-145 84.15,-145 84.15,-145"/>
<polygon fill="#000000" fill-opacity="0.200000" stroke="#000000" stroke-width="2" stroke-opacity="0.200000" points="84.15,-142.9 78.15,-145 84.15,-147.1 84.15,-142.9"/>
</g>
<!-- src/JsRoot -->
<g id="node5" class="node">
<title>src/JsRoot</title>
<g id="a_node5"><a xlink:href="src/JsRoot" xlink:title="JsRoot">
<polygon fill="#ffffcc" stroke="black" points="126,-34 74,-34 72,-32 72,-16 124,-16 126,-18 126,-34"/>
<polyline fill="none" stroke="black" points="124,-32 72,-32 "/>
<polyline fill="none" stroke="black" points="124,-32 124,-16 "/>
<polyline fill="none" stroke="black" points="124,-32 126,-34 "/>
<text text-anchor="start" x="85" y="-22.8" font-family="Helvetica,sans-Serif" font-size="9.00">JsRoot</text>
</a>
</g>
</g>
<!-- src/WrapperApp&#45;&gt;src/JsRoot -->
<g id="edge12" class="edge">
<title>src/WrapperApp&#45;&gt;src/JsRoot</title>
<path fill="none" stroke="#000000" stroke-width="2" stroke-opacity="0.200000" d="M90,-55.72C90,-55.72 90,-40.23 90,-40.23"/>
<polygon fill="#000000" fill-opacity="0.200000" stroke="#000000" stroke-width="2" stroke-opacity="0.200000" points="92.1,-40.23 90,-34.23 87.9,-40.23 92.1,-40.23"/>
</g>
<!-- src/WrapperApp&#45;&gt;src/ThreeEditor -->
<g id="edge10" class="edge">
<title>src/WrapperApp&#45;&gt;src/ThreeEditor</title>
<path fill="none" stroke="#000000" stroke-width="2" stroke-opacity="0.200000" d="M70.17,-74.28C70.17,-74.28 70.17,-89.77 70.17,-89.77"/>
<polygon fill="#000000" fill-opacity="0.200000" stroke="#000000" stroke-width="2" stroke-opacity="0.200000" points="68.07,-89.77 70.17,-95.77 72.27,-89.77 68.07,-89.77"/>
</g>
<!-- src/JsRoot&#45;&gt;src/WrapperApp -->
<g id="edge5" class="edge">
<title>src/JsRoot&#45;&gt;src/WrapperApp</title>
<path fill="none" stroke="#000000" stroke-width="2" stroke-opacity="0.200000" d="M108,-34.28C108,-34.28 108,-49.77 108,-49.77"/>
<polygon fill="#000000" fill-opacity="0.200000" stroke="#000000" stroke-width="2" stroke-opacity="0.200000" points="105.9,-49.77 108,-55.77 110.1,-49.77 105.9,-49.77"/>
</g>
<!-- src/JsRoot&#45;&gt;src/ThreeEditor -->
<g id="edge4" class="edge">
<title>src/JsRoot&#45;&gt;src/ThreeEditor</title>
<path fill="none" stroke="#000000" stroke-width="2" stroke-opacity="0.200000" d="M71.69,-25C56.05,-25 39.5,-25 39.5,-25 39.5,-25 39.5,-89.82 39.5,-89.82"/>
<polygon fill="#000000" fill-opacity="0.200000" stroke="#000000" stroke-width="2" stroke-opacity="0.200000" points="37.4,-89.82 39.5,-95.82 41.6,-89.82 37.4,-89.82"/>
</g>
<!-- src/ThreeEditor&#45;&gt;src/services -->
<g id="edge8" class="edge">
<title>src/ThreeEditor&#45;&gt;src/services</title>
<path fill="none" stroke="#000000" stroke-width="2" stroke-opacity="0.200000" d="M60,-114.28C60,-114.28 60,-129.77 60,-129.77"/>
<polygon fill="#000000" fill-opacity="0.200000" stroke="#000000" stroke-width="2" stroke-opacity="0.200000" points="57.9,-129.77 60,-135.77 62.1,-129.77 57.9,-129.77"/>
</g>
<!-- src/ThreeEditor&#45;&gt;src/WrapperApp -->
<g id="edge7" class="edge">
<title>src/ThreeEditor&#45;&gt;src/WrapperApp</title>
<path fill="none" stroke="#000000" stroke-width="2" stroke-opacity="0.200000" d="M77.83,-95.72C77.83,-95.72 77.83,-80.23 77.83,-80.23"/>
<polygon fill="#000000" fill-opacity="0.200000" stroke="#000000" stroke-width="2" stroke-opacity="0.200000" points="79.93,-80.23 77.83,-74.23 75.73,-80.23 79.93,-80.23"/>
</g>
</g>
</svg>
