<?xml version="1.0" encoding="UTF-8" standalone="no"?>
<!-- Created with Inkscape (http://www.inkscape.org/) -->

<svg
   width="67.015129mm"
   height="59.206104mm"
   viewBox="0 0 67.015127 59.206104"
   version="1.1"
   id="svg1"
   xml:space="preserve"
   inkscape:version="1.4.2 (ebf0e94, 2025-05-08)"
   sodipodi:docname="yaptide-light.svg"
   xmlns:inkscape="http://www.inkscape.org/namespaces/inkscape"
   xmlns:sodipodi="http://sodipodi.sourceforge.net/DTD/sodipodi-0.dtd"
   xmlns="http://www.w3.org/2000/svg"
   xmlns:svg="http://www.w3.org/2000/svg"><sodipodi:namedview
     id="namedview1"
     pagecolor="#121212"
     bordercolor="#000000"
     borderopacity="0.25"
     inkscape:showpageshadow="2"
     inkscape:pageopacity="0.0"
     inkscape:pagecheckerboard="true"
     inkscape:deskcolor="#d1d1d1"
     inkscape:document-units="mm"
     inkscape:zoom="2.9405047"
     inkscape:cx="191.12365"
     inkscape:cy="107.63458"
     inkscape:window-width="2560"
     inkscape:window-height="1369"
     inkscape:window-x="2552"
     inkscape:window-y="-8"
     inkscape:window-maximized="1"
     inkscape:current-layer="layer1" /><defs
     id="defs1" /><g
     inkscape:label="Warstwa 1"
     inkscape:groupmode="layer"
     id="layer1"
     transform="translate(-68.313112,-60.645767)"><path
       style="fill:#536c67;stroke-width:0.264583"
       d="m 135.32621,75.579337 -14.93447,17.278871 0.17996,21.594932 -9.35948,5.39625 -0.40596,-24.815784 13.48,-17.3901 z"
       id="path4"
       sodipodi:nodetypes="ccccccc" /><path
       style="fill:#ff5555;stroke-width:0.264583"
       d="m 93.043155,63.493278 7.553235,11.729067 8.81793,-9.897676 15.47637,14.036704 -14.03671,15.656327 0.35992,24.83417 -21.235018,-4.49894 V 92.678249 L 79.361373,74.682473 Z"
       id="path1"
       sodipodi:nodetypes="cccccccccc" /><path
       style="fill:#536c67;stroke-width:0.264583"
       d="m 109.41432,65.345563 9.53776,-2.900219 16.37616,13.136916 -10.4488,3.790362 z"
       id="path2"
       sodipodi:nodetypes="ccccc" /><path
       style="fill:#536c67;stroke-width:0.264583"
       d="m 93.038164,63.491289 c 1.079746,-0.179957 9.897676,-2.845522 9.897676,-2.845522 l 4.80117,6.589822 -7.15153,8.0036 z"
       id="path3"
       sodipodi:nodetypes="ccccc" /><path
       style="fill:#aad400;stroke-width:0.264583"
       d="m 92.183364,89.573977 c -1.407019,2.941689 0.21745,6.04958 1.844569,7.603215 L 99.7191,91.576008 Z"
       id="path6"
       sodipodi:nodetypes="cccc" /><path
       style="fill:#668000;stroke-width:0.264583"
       d="m 92.183364,89.56273 c 1.659499,1.397341 2.513914,5.174811 1.855817,7.603215 0,0 -1.524529,-0.728356 -2.166883,-3.468281 -0.642353,-2.739925 0.311066,-4.134934 0.311066,-4.134934 z"
       id="path8"
       sodipodi:nodetypes="cczc" /><path
       style="fill:#aad400;stroke-width:0.264583"
       d="m 68.460153,98.363753 c 0.318125,-0.127251 24.15352,-5.893236 24.15352,-5.893236 0.63856,0.47454 0.742178,1.333674 0.596481,2.067801 l -24.177379,5.925052 c -0.80169,-0.572619 -0.779147,-1.316953 -0.572622,-2.099617 z"
       id="path5"
       sodipodi:nodetypes="ccccc" /><path
       style="fill:#668000;stroke-width:0.264583"
       d="m 68.460153,98.371706 c 0.511199,0.224924 0.839763,1.654514 0.566998,2.099124 -0.267795,-0.0851 -0.54611,-0.41769 -0.654482,-0.945927 -0.108372,-0.528239 -0.06275,-1.014024 0.08748,-1.153197 z"
       id="path7"
       sodipodi:nodetypes="cczcc" /></g></svg>
